/* XPM */
static char * windowicon_xpm[] = {
"16 16 20 1",
" 	c #645D90",
".	c #6B6594",
"+	c #736D98",
"@	c #7B759C",
"#	c #837EA1",
"$	c #868580",
"%	c #8B86A5",
"&	c #938EA9",
"*	c #9A96AE",
"=	c #A29FB2",
"-	c #B1AFBB",
";	c #B9B7BF",
">	c #A5C8E6",
",	c #B9D4E9",
"'	c #C1BFC3",
")	c #C5C5B9",
"!	c #C9C8C8",
"~	c #D1D0CC",
"{	c #D9D8D0",
"]	c #E1E1D5",
",,,,,,,,,,,,,,,$",
",>>>>>>>>>>>>>)$",
",>]]]]~;====;')$",
",>]]'#  @#+  #)$",
",>];  +!]]]= =)$",
",>]@  =]]]]' ')$",
",>].  .-~]]{'])$",
",>]=     @*']])$",
",>]]'=#     ;])$",
",>]]]]]]'.  #])$",
",>{]]]]]]@  &])$",
",>%*!]]!%  @{])$",
",>*.     @-]]])$",
",>]]{''']]]]]])$",
",))))))))))))))$",
"$$$$$$$$$$$$$$$$"};
